<?xml version="1.0" standalone="no"?><!DOCTYPE svg PUBLIC "-//W3C//DTD SVG 1.1//EN" "http://www.w3.org/Graphics/SVG/1.1/DTD/svg11.dtd"><svg t="1597387192878" class="icon" viewBox="0 0 1024 1024" version="1.1" xmlns="http://www.w3.org/2000/svg" p-id="5366" xmlns:xlink="http://www.w3.org/1999/xlink" width="200" height="200"><defs><style type="text/css"></style></defs><path d="M917.5 106.7H106.9c-23.6 0-42.7 19.1-42.7 42.7v725.3c0 23.6 19.1 42.7 42.7 42.7h362.7c11.8 0 21.3-9.6 21.3-21.3 0-11.8-9.6-21.3-21.3-21.3H128.2c-11.8 0-21.3-9.6-21.3-21.3V170.7c0-11.8 9.6-21.3 21.3-21.3h768c11.8 0 21.3 9.6 21.3 21.3v256c0 11.8 9.6 21.3 21.3 21.3 11.8 0 21.3-9.6 21.3-21.3V149.3c0.1-23.5-19-42.6-42.6-42.6z" p-id="5367"></path><path d="M768.2 320c0-11.8-9.6-21.3-21.3-21.3H277.5c-11.8 0-21.3 9.6-21.3 21.3 0 11.8 9.6 21.3 21.3 21.3h469.3c11.9 0 21.4-9.5 21.4-21.3zM277.5 448c-11.8 0-21.3 9.6-21.3 21.3 0 11.8 9.6 21.3 21.3 21.3h170.7c11.8 0 21.3-9.6 21.3-21.3 0-11.8-9.6-21.3-21.3-21.3H277.5zM869.1 554.8c-7.6-13.3-21.7-21.5-37-21.5H661.7c-15.3 0-29.4 8.2-37 21.5l-85.5 149.3c-7.5 13.1-7.5 29.3 0 42.4l85.5 149.3c7.6 13.3 21.7 21.5 37 21.5h170.4c15.3 0 29.4-8.2 37-21.5l85.5-149.3c7.5-13.1 7.5-29.3 0-42.4l-85.5-149.3z m-37 319.9H661.7l-85.5-149.3L661.7 576h170.4l85.5 149.3-85.5 149.4z" p-id="5368"></path><path d="M756.8 649.9c-8.3 8.3-8.3 21.8 0 30.2l23.9 23.9H661.5c-11.8 0-21.3 9.6-21.3 21.3 0 11.8 9.6 21.3 21.3 21.3h119.2l-23.9 23.9c-8.3 8.3-8.3 21.8 0 30.2 8.3 8.3 21.8 8.3 30.2 0l60.3-60.3c2-2 3.5-4.3 4.6-6.9 1.1-2.6 1.6-5.4 1.6-8.1 0-2.8-0.6-5.5-1.6-8.2-1.1-2.6-2.6-4.9-4.5-6.8 0 0 0-0.1-0.1-0.1L787 650c-8.4-8.4-21.9-8.4-30.2-0.1z" p-id="5369"></path></svg>